<?xml version="1.0" encoding="utf-8"?>
<!-- Generator: Adobe Illustrator 17.1.0, SVG Export Plug-In . SVG Version: 6.00 Build 0)  -->
<!DOCTYPE svg PUBLIC "-//W3C//DTD SVG 1.1//EN" "http://www.w3.org/Graphics/SVG/1.1/DTD/svg11.dtd">
<svg version="1.1" id="Layer_1" xmlns="http://www.w3.org/2000/svg" xmlns:xlink="http://www.w3.org/1999/xlink" x="0px" y="0px"
	 viewBox="0 0 90 40" enable-background="new 0 0 90 40" xml:space="preserve">
<symbol  id="logo_x5F_blk_x5F_90x40" viewBox="0 -40 90 40">
	<path fill="#231F20" d="M30.9-28c-4.5,0-6.8,3.6-6.8,6.8c0,3.8,3,7.1,7.3,7.1c4.1,0,6.7-3.4,6.7-6.8C38-24.3,35.4-28,30.9-28z
		 M34.6-25.4c0.7,0.9,0.9,2,0.9,3.1c0,2.4-1.2,7.1-4.9,7.1c-1,0-1.9-0.4-2.7-0.9c-1.1-1-1.4-2.2-1.4-3.4c0-2.8,1.4-7.3,5-7.3
		C32.7-26.8,33.9-26.3,34.6-25.4z"/>
	<path fill="#231F20" d="M71-8.6h-2L70.5-7h4.9l-1.2-1.2C74.1-8.3,74-8.5,74-8.8l0-17.3c0-0.4,0.3-0.8,0.7-0.8l1.7-0.2L75.5-28h-5.9
		l1.2,1.2c0.1,0.1,0.2,0.3,0.2,0.5L71-8.6z"/>
	<path fill="#231F20" d="M85.8-26.3c-2.6,0-5,1.7-5.9,5l9,3.5c-0.5,1.7-1.8,3.6-5.4,3.6c-2.9,0-6.5-2.2-6.5-6.6
		c0-3.5,2.3-7.1,6.9-7.1c0.9,0,2.4,0.1,3.9,1.1c0.6,0.4,1.1,0.9,1.5,1.4C88.4-25.9,87.3-26.3,85.8-26.3z M83-15.1
		c1.6,0,3.1-1.3,3.1-2.5c0-0.4-0.5-0.6-1-0.8l-5.3-2.1C79-16.1,81.8-15.1,83-15.1z"/>
	<path fill="#231F20" d="M11.9-28.8c-3.1,0-5.5,0.9-7.3,2.2c-3.2,2.3-4.5,5.8-4.5,9.4c0,3.3,1.9,6.5,4.5,8.6
		c2.1,1.6,4.8,2.5,7.8,2.5c1.7,0,3.1-0.2,4.6-0.6c2.2-0.6,3.3-1.4,4-1.9l-3-3v2c-1.2,1-2.7,2.2-6.3,2.2c-4.7,0-8.3-3.4-8.3-9.1
		s4.3-11,10.2-11c2.2,0,3.5,0.3,4.4,0.6v5.3h-4l1.6,1.6h6.8l-1.1-1.1c-0.1-0.1-0.2-0.3-0.2-0.6v-5.7C19.6-27.8,16.3-28.8,11.9-28.8z
		"/>
	<path fill="#231F20" d="M46.9-28c-4.5,0-6.8,3.6-6.8,6.8c0,3.8,3,7.1,7.3,7.1c4.1,0,6.7-3.4,6.7-6.8C54-24.3,51.4-28,46.9-28z
		 M50.6-25.4c0.7,0.9,0.9,2,0.9,3.1c0,2.4-1.2,7.1-4.9,7.1c-1,0-1.9-0.4-2.7-0.9c-1.1-1-1.4-2.2-1.4-3.4c0-2.8,1.4-7.3,5-7.3
		C48.7-26.8,49.9-26.3,50.6-25.4z"/>
	<polygon opacity="0.1" fill="none" points="90,-40 0,-40 0,0 90,0 	"/>
	<path fill="#231F20" d="M66.3-27.4c0,0-1.1,0.8-1.1,0.8c-0.4,0.3-0.8,0.7-0.8,1.4c0,0.7,0.5,1.3,1,1.6c1.3,1,2.6,2.1,2.6,4.3
		c0,1.8-1,2.9-1.7,3.6h1.6l1.2,1.6h-6.3c-4.4,0-6.6-2.7-6.6-5.7c0-2.3,1.8-4.8,5-4.8h0.8c-0.1-0.3-0.4-0.8-0.4-1.3
		c0-1,0.4-1.4,0.9-2c-1.4-0.1-4-0.4-5.9-1.6c-1.8-1.1-2.3-2.6-2.3-3.7c0-2.3,2.1-4.5,6.6-4.5c5.4,0,8,3,8,5.9
		C68.8-29.7,67.7-28.6,66.3-27.4z M58.7-18.3c0,2.2,1.3,3.2,2.7,3.2c2.6,0,4-3.5,4-5.5c0-2.6-2.1-3.1-2.9-3.1
		C60-23.7,58.7-20.6,58.7-18.3z M62.3-36.3c-3.3,0-5.4,1.5-5.4,3.7c0,2.2,2,2.9,2.6,3.2c1.3,0.4,3,0.5,3.3,0.5c0.3,0,0.5,0,0.7,0
		c2.4-1.7,3.4-2.4,3.4-4C66.8-34.8,65-36.3,62.3-36.3z"/>
</symbol>
<use xlink:href="#logo_x5F_blk_x5F_90x40"  width="90" height="40" id="XMLID_21_" y="-40" transform="matrix(1 0 0 -1 0 0)" overflow="visible" opacity="0.4"/>
</svg>